<svg xmlns="http://www.w3.org/2000/svg" xmlns:xlink="http://www.w3.org/1999/xlink" width="720" height="720" viewBox="0 0 720 720">
  <defs>
    <clipPath id="clip-maija">
      <rect width="720" height="720"/>
    </clipPath>
  </defs>
  <g id="maija" clip-path="url(#clip-maija)">
    <g id="Group_62" data-name="Group 62" transform="translate(21.697 -31)">
      <g id="bra">
        <path id="Path_6" data-name="Path 6" d="M229.5,457.9s-9,1.6-11,5.6a23.129,23.129,0,0,0-2,9s-7.538,5.283-8.269,7.642S207.5,487.5,204.5,489.5a11.977,11.977,0,0,0-4,4s-2,5-1,9-4,21-3,26,3,17,6,24,8.538,18.543,8.538,18.543l20.656-56.57Z" fill="#8dacab"/>
      </g>
      <g id="shirt">
        <path id="Path_7" data-name="Path 7" d="M358.5,684.5A323.181,323.181,0,0,0,600.655,575.731c-1.889-2.684-3.711-5.344-4.155-6.231-1-2-2-1-2-1s-1-8-3-12-10-11-12-14-28-43-30-47-24.578-21.873-24.578-21.873l-41.471-27.453L396.5,547.378,245.389,580.056,219.5,529.5l19-87s-9,3-12.536,3.674S210.5,453.5,210.5,453.5s-24,4-37,10-23,23-26,26a50.18,50.18,0,0,1-8,6s-10,3-13,4-15,6-18,7-23.627,7.973-23.627,7.973l-8.923,4.659C131.478,617.824,237.194,684.5,358.5,684.5Z" fill="#38444b"/>
      </g>
      <g id="shirt_shadows" data-name="shirt shadows">
        <path id="Path_8" data-name="Path 8" d="M202.385,460s-14.885,2.5-16.885,3.5-3,7-5,8-8-1-9-1,0,2.083,0,5.042-20,25.958-21,27.958,1,6-2,7-4.731,5-4.865,9-3.135,27-3.135,27,4.619,1,4.31-2,3.69-23,6.69-22,6,7,10,7,7-1,6-5-1-34,1-36S202.385,460,202.385,460Z" fill="#252e35"/>
        <path id="Path_9" data-name="Path 9" d="M173.5,584.5c-2-7-6-36-5-42s-2,6-6,8-13,4-13,4,17,25,19,35c1.073,5.365,2.721,21.665,4.019,35.625q4.895,3.464,9.929,6.739C179.425,614.741,174.811,589.089,173.5,584.5Z" fill="#252e35"/>
        <path id="Path_10" data-name="Path 10" d="M277.5,656.5c-5-5-26-24.185-26-24.185l-31-17.815s42,39,46,46c1.481,2.591,3.759,7.41,6.042,12.451q8.252,2.265,16.676,4.1C285.8,669.867,280.638,659.638,277.5,656.5Z" fill="#252e35"/>
        <path id="Path_11" data-name="Path 11" d="M277.2,640.5s17.3,4,23.3,7,37,25.115,37,25.115-29-29.115-33-30.115S277.2,640.5,277.2,640.5Z" fill="#252e35"/>
        <path id="Path_12" data-name="Path 12" d="M392.5,572.537a77.73,77.73,0,0,1-6,9.4s4,26.559,3.541,35.559c-.391,7.673-7.874,53.055-10.072,66.274q3.96-.258,7.893-.613c3.733-20.834,13.941-78.128,15.276-88.993,1.639-13.332,3.362-30.668,3.362-30.668l-11.757-3.639S394.5,568.5,392.5,572.537Z" fill="#252e35"/>
        <path id="Path_13" data-name="Path 13" d="M476.5,484.5c-7,1-49,78-49,78s1.936,23.111,7.468,17.556,7.091-22.835,14.311-20.2S471.5,581.5,472.5,599.5c.727,13.09-3.833,48.385-6.376,66.67q4.934-1.737,9.8-3.619c.93-25.125,3.294-82.453,6.036-98.418,3.543-20.633,3.672-62.612,3.672-62.612S483.5,483.5,476.5,484.5Z" fill="#252e35"/>
        <path id="Path_14" data-name="Path 14" d="M511.6,537.3c-5.1,20.2-19.065,43.2-18.58,55.2.338,8.371-1.019,43.312-1.871,63.682q13.41-6.024,26.146-13.22c-2.992-9.521-7.74-27.421-5.695-39.831,2.9-17.631,8.9-58.326,9.9-67.978s-7.463-41.653-7.463-41.653S516.69,517.1,511.6,537.3Z" fill="#252e35"/>
        <path id="Path_15" data-name="Path 15" d="M541.5,563.5c-1,7,3,39,3,42s-8,18-9,19-1.5-3-1.5-3l.949,10.757q1.527-.993,3.041-2c1.525-4.937,3.361-10.653,4.308-12.76,1.8-4,5.2-21,5.2-26s0-29-1-33,3-7,4-14.939-6-15.061-9-19.061S542.5,556.5,541.5,563.5Z" fill="#252e35"/>
      </g>
      <g id="shirt_highlights" data-name="shirt highlights">
        <path id="Path_16" data-name="Path 16" d="M209.5,485.5s-3.99,2-5.995,1-7.005-5-10.005-4a32.305,32.305,0,0,0-7.008,4s7.008,0,7.008,3,3.734,6.854,2.867,12.927S191.5,522.5,191.5,528.5s3,25.747,10,34.874,26,13.126,26,13.126Z" fill="#697883"/>
        <path id="Path_17" data-name="Path 17" d="M140.5,565.991c-1-1.491,4-9.491,3-12.491s-3-7-1.5-9,5.33,2,6.915,0,3.585-5,6.585-6,6-4,7-5-1,5-3,9-8,6.07-10,8.535,1,2.465-3,7.465S140.5,565.991,140.5,565.991Z" fill="#697883"/>
        <path id="Path_18" data-name="Path 18" d="M424.5,677.974V572.5L414.319,679.859C417.729,679.278,421.127,678.661,424.5,677.974Z" fill="#697883"/>
        <g id="Group_2" data-name="Group 2">
          <path id="Path_19" data-name="Path 19" d="M526.12,516.73l-.934-13.84A128.518,128.518,0,0,0,526.12,516.73Z" fill="#697883"/>
          <path id="Path_20" data-name="Path 20" d="M596.013,568.868c-1-2-2-1-2-1s-1-8-3-12-10-11-12-14-28-43-30-47-24.578-21.873-24.578-21.873l-1.326-.878,2.077,30.773c-.009-6.47.854-12.367,4.314-10.39,7,4,19.194,19.676,22.1,28.838s4.562,37.523,4.562,37.523S555.5,535.5,559.5,541.5s5,49,9,52c1.1.829,3.816,3.264,7.157,6.349a326.144,326.144,0,0,0,24.511-24.75C598.279,572.415,596.457,569.756,596.013,568.868Z" fill="#697883"/>
        </g>
      </g>
      <g id="face">
        <path id="Path_21" data-name="Path 21" d="M371.5,556.5a19.239,19.239,0,0,0-7,7c-3,5-4,10-6,14s-6,5-9,9-3,10-8,14-16,7-21,11-5,6-10,6-12-4-18-3-15,3-21,0-18-10-22-13-10.392-11-16.7-14.5-19.3-12.5-21.3-14.5-5-67-2-75,17-38,17-38,11-20,14-27,16-42,16-42-15-19-16-27-2-11-2-16-3-19-3-26-3-16-2-23,22-37,39-37,33,17,33,17l91-66,113,8,37,48s4,14,4,20-1,65-4,72-24,34-24,34,3,30,4,36,8,27,3,34-10,11-14,10-13,0-16-1-10-3-10,0,0,5-2,8-14,12-14,12a35.36,35.36,0,0,1-6,1h-3a4.829,4.829,0,0,1,0,4,59.226,59.226,0,0,1-4,6s1-1,1,1,0,7-1,9-7,12-9,12-4,2-5,4a33.853,33.853,0,0,0-3,8c-1,4-3,27-17,31s-34-1-40-4S371.5,556.5,371.5,556.5Z" fill="#efcbb7"/>
      </g>
      <g id="Layer_19" data-name="Layer 19">
        <path id="Path_22" data-name="Path 22" d="M479,488c-2-1-7-5.142-12.5-6.071s-21.5-2.517-27-3.223-27.333-7.956-29.416-7.331S405,479,406,482s8,11,9,13,4,9,6,11a52.249,52.249,0,0,0,8.5,6.544c2.5,1.456,5.017,8.952,7.758,11.2,2.353,1.932,6.458,5.21,10.38,5.443a5.385,5.385,0,0,1,3.79-2.191c2,0,8-10,9-12s1-7,1-9-1-1-1-1a59.226,59.226,0,0,0,4-6,4.829,4.829,0,0,0,0-4h3a35.36,35.36,0,0,0,6-1s3.406-2.555,6.891-5.395C479.861,488.409,479.409,488.2,479,488Z" fill="#eb9094"/>
        <path id="Path_23" data-name="Path 23" d="M467.523,492c-4.216-2.179-18.645-9.683-22.622-10.07-1.025-.1-2.9-.448-5.165-.923-7.469-1.564-19.236-4.506-19.236-4.506s8,2.635,9,3.818,6-.818,11,2.182,15,5,16,6,4.285,5,5.642,5a8.845,8.845,0,0,1,2.767,1.028,5.092,5.092,0,0,0-.422-2.528h3.036Z" fill="#ce656d"/>
        <path id="Path_24" data-name="Path 24" d="M446.5,506.5a11.913,11.913,0,0,0,6,2l1-2h3c2,0,8-6,8-7s.559-4.9.559-4.9-2.817-.9-3.688,0-.6-1.544-1.235-2.324-6.467-.076-8.052.572S451.5,487.5,450.5,487.5s-4.2-1-5.6,0-4.4,3-4.4,3-.054-6.008-2.527-7.5-5.473-1.5-6.473-.5-3,3-4,3-1-5-4-6-8.025,0-8.025,0l1.025,4,5,5,12.994,9.88,1.551-1.88s-.545,2,.455,3S443.5,504.5,446.5,506.5Z" fill="#e8e4d9"/>
      </g>
      <g id="face_soft_shadows" data-name="face soft shadows">
        <path id="Path_25" data-name="Path 25" d="M392.5,493.5l12-17s2.441-7.677,5.221-8.838,8.728,1.161,12.253,0,9.613-6,18.07-12.081S466.5,442.5,466.5,442.5s-10.728,9.661-15.864,11.331S433.5,463.5,431.5,464.5s-14,9-14,9l-4-2-7,4s-3,6-5,9S392.5,493.5,392.5,493.5Z" fill="#d69887"/>
        <path id="Path_26" data-name="Path 26" d="M453.5,393.5s5,0,7,2,3,3.761,6,2.88,3-3.88,4-5.88c.746-1.491-.156-5.078.988-7.061a2.66,2.66,0,0,1,2.03-1.323c3.982-.616,3.982-1.777,6.982-5.2s9-.42,10,.58,5.035,2.233,5.018,4.616-1.983,7.991,0,9.188,4.982-.8,4.982-2.8,0-13,1-15,10.188-4,10.094-7-3.094-15-9.094-16-16.871-2.518-16.871-2.518,3.386,10.266,1.128,14.892S473.5,378.5,473.5,380.5s-17,5-17,5,1.53,1.046.265,4.023a8.455,8.455,0,0,1-4.681,4.119Z" fill="#d69887"/>
        <path id="Path_27" data-name="Path 27" d="M266.5,397.5l-10-7-.032.017c-1.6,4.3-13.02,34.977-15.808,41.483-1.324,3.088-4.2,8.7-7.009,14.02,5.977.473,16.926.249,22.679-6.68,8.17-9.84,10.975-29,15.572-29.92s11.6-1.8,14.6,3.138,4.74,14.88,4.74,14.88L289.5,398.8Z" fill="#d69887"/>
        <path id="Path_28" data-name="Path 28" d="M332.5,519.5s-19-31-26-41-15.26-28.526-15.26-28.526S293.5,488.5,297.5,500.5s18,18,24,28,0,9-1,17,4,5,2,13-19,20-17,21,15,1,24-3,32-30,32-30l-13-5Z" fill="#d69887"/>
        <path id="Path_29" data-name="Path 29" d="M253.5,536.5c-3-1-9-3-8,6s10.937,14.533,14.969,23.766,10.031,36.7,10.031,36.7l8,3.531a97.215,97.215,0,0,0,0-26.444C276.5,565.5,256.5,537.5,253.5,536.5Z" fill="#d69887"/>
        <path id="Path_30" data-name="Path 30" d="M493.66,471c0-3,7-1,10,0,1.5.5,4.488.5,7.607.5-1.434-1.614-2.342-4.425-.767-6,2-2,3.343-6.951-.828-5.476s-29.172,2.147-29.172,2.147-4.018,3.652-2.509,5.491,3.509,4.08,2.509,5.959-3,5.879-1,6.879,2.579-1,5.289,0a7.627,7.627,0,0,1,2.871,2.5,26.823,26.823,0,0,0,4-4C493.66,476,493.66,474,493.66,471Z" fill="#d69887"/>
        <path id="Path_31" data-name="Path 31" d="M522.66,394s10.3-13.246,17.505-23.589c-5.393,1.729-12.455,4.274-13.665,6.089-2,3-5,9-5,11s1.291,12.233,1.291,12.233l.4-.523C522.867,396.067,522.66,394,522.66,394Z" fill="#d69887"/>
        <path id="Path_32" data-name="Path 32" d="M447.5,525.5c-1,0,.438,4-7.281,0s-13.719-12-14.719-5-10,11-7,13,13.391-3,18.2,0c2.323,1.45,4.687,4.3,6.514,6.861.181-1.04.324-1.854.451-2.361a33.853,33.853,0,0,1,3-8c.906-1.812,2.633-3.607,4.436-3.932C449.477,525.766,447.931,525.5,447.5,525.5Z" fill="#d69887"/>
        <path id="Path_33" data-name="Path 33" d="M274.5,323.5l-2,2s-5,5.393-6,7.2,3.8-2.2,5.4,3.8-2.232,11.87,1.183,14.435,6.415,6.436,6.915,9.5.5,10.064,1.5,11.064,8,0,8,0,3-37.787,0-38.394-7,3.394-6,.394-1-7-1-7l-8-3h0" fill="#d69887"/>
      </g>
      <g id="face_hard_shadows" data-name="face hard shadows">
        <path id="Path_34" data-name="Path 34" d="M284.939,319.9s-.439,3.6-.439,4.6,2,6,0,6-3-2-5-2-7,1-7-1,1-4,2-4,10.439-3.6,10.439-3.6l-.439,1.6" fill="#bf7564"/>
        <path id="Path_35" data-name="Path 35" d="M286.5,308.5s-4-10-8-12-7-5-14-2-10,2-12,6-4,6.3-3,7.15,3-5.15,5-6.15,5-1,8-2,5-3,7-3,5-1,7,0,5,4,5,6-3,4-1,5S284.5,310.5,286.5,308.5Z" fill="#bf7564"/>
        <path id="Path_36" data-name="Path 36" d="M293.5,388.5s-3,3-3,6-1,9.773-1,9.773-2-3.773-5-2.773-8,3-11,3-7-7-7-7,1.8,1.464,5.4.732,12.6-2.732,14.6-3.732S293.5,388.5,293.5,388.5Z" fill="#bf7564"/>
        <path id="Path_37" data-name="Path 37" d="M332.5,519.5l29,27a41.859,41.859,0,0,1-11,9c-7,4-12,5-14,4s3.787-10,2.894-15-6.894-18-6.894-21.5Z" fill="#bf7564"/>
        <path id="Path_38" data-name="Path 38" d="M505.228,467.662C506.5,465.5,497.5,461.5,495.5,461.5s-18,1-24-6-3-12-3-12-7,6,2,15,22,5,24,6S505.228,467.662,505.228,467.662Z" fill="#bf7564"/>
        <path id="Path_39" data-name="Path 39" d="M366.89,559.947c-4.231,3.143-10.557,7.785-15.4,11.1C343.5,576.5,300.5,580.5,300.5,585.5s21.74,7,25.87,7c2.113,0,12.039-1.308,21.234-2.586A16.85,16.85,0,0,1,349.66,586c3-4,7-5,9-9s3-9,6-14A21.052,21.052,0,0,1,366.89,559.947Z" fill="#bf7564"/>
      </g>
      <g id="face_highlights" data-name="face highlights">
        <path id="Path_40" data-name="Path 40" d="M396.5,248.5s9,8,11,18-5,17,4,23,10,1,16,11,11,9,6,17-12,14-10,17,40-7,48-4,30,19,30,12,9-7,9-14-1.916-16.245-11.958-32.123-.882-33.545,6.038-38.211S514.5,238.5,514.5,238.5V205.644H413.153Z" fill="#efdbc8"/>
        <path id="Path_41" data-name="Path 41" d="M438.5,370.5s-26-11-35-10-17,8-17,12,16,8,18,13-2,18,2,23,17,11,23,10,2-12.739,9-20.869,9-4.131,12-5.131,1-16,0-14.5S438.5,370.5,438.5,370.5Z" fill="#efdbc8"/>
        <path id="Path_42" data-name="Path 42" d="M490.5,382.5c-1.857-.743-10,6-10,10s2,15.217,5,14.108,6-11.108,6-14.108S495.5,384.5,490.5,382.5Z" fill="#ead9c8"/>
        <path id="Path_43" data-name="Path 43" d="M523.289,400.2a71.916,71.916,0,0,1-1.789-9.7c0-4-3.387-10.113-10.694-8.057-3.341.941-4.146,8.589-6.226,22.323S503.5,427.5,499.5,425.5s-10.485-12-12.743-10.5-6.257,6.5-4.257,8.5,4-2,8,4,13,3,10,12-12,6-12,8,3.763,6.631,7.881,6.315,11.732-6.211,14.425-2.763S521.5,454.5,521.5,450.5c0-2.584,2.919-13.924,4.988-21.634C525.7,423.361,524.157,408.653,523.289,400.2Z" fill="#efdbc8"/>
        <path id="Path_44" data-name="Path 44" d="M337.5,592.5c-3,1-25,5-30,5s-12,8-19,9-14-6-18-10.271-13-27.729-17.241-31.729-8.759,0-13.759,0-12-12-18-15a64.009,64.009,0,0,0-11.84-4.039c.671,13.087,1.619,23.747,2.41,24.539,2,2,15,11,21.3,14.5s12.7,11.5,16.7,14.5,16,10,22,13,15,1,21,0,13,3,18,3,5-2,10-6,16-7,21-11c4.271-3.417,4.9-8.289,6.859-12.131C344.177,588.538,339.271,591.91,337.5,592.5Z" fill="#efdbc8"/>
        <path id="Path_45" data-name="Path 45" d="M295.661,336.5s-6.161,1-7.161,3,1,5.173,0,7.087-2.6,4.731-2.8,5.822,2.653,5.962,2.726,8.027.073,8.064-.927,9.064-3-3-4-3-5,1-6,0-1.082-5.129-3.541-6.064S262.5,356.5,261.5,352.5s-4-9.118,0-14.559,5-14.441,7-15.441,6.74,0,9.87,0a22.091,22.091,0,0,0,6.13-1l1.2-4.379s-4.2,3.379-7.2,1.379-9-9-7-11,4-7,1-7-7,9-10,13-8,6-9,9-.487,11-1.243,14-2.244,10.466,0,12.733,11.517,8.138,12.88,11.2,4.363,2.171,5.363,6.618,2,7.446-1,6.446-6-5-8-6-9-3.984-10-6.492-5-9.508-5-13.508-1.83-11.807-2.415-10.4-1.415,17.025,0,19.714S250.5,367.5,252.5,371.5s7.937,5.261,7.969,8.631,2.219,9.415,6.625,9.392,3.576-7.232,5.991-6.128S275.5,386.5,277.5,388.5s6.4,3.716,8.2,2.358,5.8-1.358,7.8-8.358.322-22.825,2.161-24.912S300.5,356.5,300.5,352.5,299.822,335.5,295.661,336.5Z" fill="#efdbc8"/>
      </g>
      <g id="hair_shaved" data-name="hair shaved">
        <path id="Path_46" data-name="Path 46" d="M238.5,345.5c-2.965-9-6.533-15.6-7-17-1-3-1-17-2-20s-5-27-5-34,14-70,17-75,19-25,22-26,16-21,16-21l106-31,118,68s3,34-1,40-18,18-28,20,3-2,3-9-6-3-13-2-24,1-24,1,10-2,14-4-12,3-18,3-16-3-16-3-6-5-9,3-6,19-13,26-36,25-39,31-.424,23.477-3,26c-2.025,1.983-14.028,19.856-14,21l-26-8a15.91,15.91,0,0,0-1-9c-2-5-17.913-26.338-17.913-26.338S279.5,277.5,267.5,278.5s-27,15-28,26-.108,13.5-.054,21.251S238.5,345.5,238.5,345.5Z" fill="#39332a"/>
      </g>
      <g id="dark_hair" data-name="dark hair">
        <path id="Path_47" data-name="Path 47" d="M303.5,237.5c1-16-10-26-18.111-35.5s-30.889,7.5-31.778,10.5-6.111,13-10.306,17.459-3.8,11.541-4.8,23.541c-.616,7.39-4.539,42.264-7.463,67.972a41.312,41.312,0,0,0,.841,7.354c.443,1.331,3.684,7.354,6.549,15.671l.578-.3c.268-3.539.861-12.109.819-18.123-.054-7.749-.946-10.251.054-21.251s16-25,28-26,30.087,20.663,30.087,20.663,2.833,3.8,6.257,8.565c3.538-7.42,10.912-24.914,6.174-33.1C304.291,264.4,302.5,253.5,303.5,237.5Z" fill="#271e19"/>
      </g>
      <g id="hair_fade" data-name="hair fade">
        <path id="Path_48" data-name="Path 48" d="M507.5,214.5l-5,29-34,13-48-21s11-11,12-17,1-19,1-19-2,13.068-13,18.034-34,7.509-34,7.509,11-2.543,13-7.543a47.68,47.68,0,0,1,4-8s-10,9-20,10-28,3-28,3,7.08-2.323,9.04-4.162S352.5,214.5,352.5,214.5s18.654-8,21.827-15-.827-17-.827-17-2.92,11.841-8.96,14.921-17.03,8.223-17.03,8.223,8.99-5.144,8.99-12.144-7-14-7-14,2.019,1.488-1.99,4.244S335.5,189.5,335.5,189.5s7-15,6-18-5-10-12-5-17,16-17,16-1-4.862,0-8.431-5,2.431-9,6.431-14,9-14,9,1-5.443-3-4.722-11,3.722-11,3.722-3.271-1.924-9.136,1.038S254.5,200.5,254.5,200.5s-2-8.064,0-14.532,2-16.468,2-16.468l24-32,83-18,41-5,108.452,71Z" fill="#cec8b7"/>
      </g>
      <g id="mohawk">
        <path id="Path_49" data-name="Path 49" d="M287.5,174.5s-14,5-19,5-19,1-19,1a33.718,33.718,0,0,1,7.226-3c3.774-1-5.226,1-6.226-9s4-19,4-19-1,9,3,13a19.2,19.2,0,0,0,8,5s-6.649-8-4.325-18,7.325-11.526,7.325-11.526a4.052,4.052,0,0,0,4.454,0c2.546-1.474.546-13.474.546-13.474l6-7s-3,6-2,9,10-7.372,10-7.372l3,8.372s-1,2,3-3,12-11,12-11-4.031,4-4.015,8a5.481,5.481,0,0,0,8.015,5c4-2,5.044-5,9.522-5s6.478,5,11.478,2,6.93-8,3.965-10a49.512,49.512,0,0,0-4.965-3s12-2,15-4,7-9,7-9,9.08,4.062,13.04,4.031a38.989,38.989,0,0,0,7.96-1.031s4.731,1.666,6.865,1.333S381.6,97.5,381.6,97.5s9.9,6,12.9,6,0-4.083,0-4.083,15,1.083,19,2.083,28,13,33,15,15.381,4,21.19,5,14.81,6,18.81,10,8,8,8,13-3,8-6,8,11,1,13-2,3.08-10.607,3.08-10.607,3.92,4.607,5.92,5.607,14,6,16,9,1,8,1,8,4,0,4-2,5,0,5,0,0,4,2,5,8,7,9,10,0,7.374,3,8.187,12,7.813,12,7.813-5,0-7-1,2,3,5,4,13,5,13,5-9,4-14,4,16.472,9,16.472,9-1.527.27,0,3.635S581.5,220.5,581.5,223.5s-4,6-3,8,12,7,12,7-11,8-18,8-25-5-28-5,14,2,18,6,7,11,7,15-4,11-4,11,1-6-1-8,0,5-4,10-13,10-13,10-5-22-15-31-16-6-22-14-7-22-16-30-37-21-43-25-19-5-19-5,1-10-5-12-4,5-4,5-1-5-11-8-9-2-9-2,0-2,3,6,1,14,1,14-2-9-6-12-14-7-14-7-20-7-26-10-14-9-20-8-6,3-6,3,2-3,0,3-4,8-4,8,2-5,0-6-9-5-9-2a12.85,12.85,0,0,0,1.625,5.747A24.456,24.456,0,0,0,316.5,154.5c-4-1-4,0-4,0s2,0,3,4a13.053,13.053,0,0,1-1,8s1-5-2-6a10.56,10.56,0,0,0-6,0s1,0,1,2-2,5-2,5,0-4-2-4-6,3-6,3Z" fill="#bcbce8"/>
      </g>
      <g id="peircing">
        <path id="Path_50" data-name="Path 50" d="M273.5,386.5s.554.693,1.389,1.859c2.337,3.266,6.874,10.247,7.611,16.141,1,8,4,32,3,39s-7,43-16,43-9.561-31-8.78-50,5.78-39,5.78-39l3,1s-5.677,20-6.338,38-.662,43,4.338,47,9-9,11-17,3-28,3-36-1-25-4-32c-1.106-2.582-1.46-5.123-2.553-6.779C271.5,386.5,273.5,386.5,273.5,386.5Z" fill="#35312e"/>
        <path id="Path_51" data-name="Path 51" d="M494.69,446.651s1.313-1,1.157,0,.182,6.479.013,7.24-1.17,7.725-1.17,7.242-.845.024-.845.024,1.219-5.444,1.032-7.475S494.69,446.651,494.69,446.651Z" fill="#35312e"/>
      </g>
      <g id="peircing_highlights" data-name="peircing highlights">
        <g id="Group_3" data-name="Group 3">
          <path id="Path_52" data-name="Path 52" d="M281.2,429.814c0,4.125-.267,11.439-.8,18.654l4.17-1.664c.288-1.713.5-3.093.628-3.99.755-5.285-.77-20.256-1.993-30.719l-2.77,2.492C280.983,420.336,281.2,426.064,281.2,429.814Z" fill="#aaa7a5"/>
          <path id="Path_53" data-name="Path 53" d="M262.864,435.814c.07-1.9.2-3.82.367-5.738L260.6,432.44c-.074,1.125-.136,2.252-.182,3.374-.251,6.122-.361,13.489-.1,20.665l2.266-.9C262.49,448.914,262.638,441.957,262.864,435.814Z" fill="#aaa7a5"/>
        </g>
        <path id="Path_54" data-name="Path 54" d="M494.987,453.932a13.5,13.5,0,0,1-.158,2.648l.717.18c.192-1.254.362-2.344.424-2.62a27.316,27.316,0,0,0,.005-3.283l-1.119.336C494.883,452.239,494.925,453.252,494.987,453.932Z" fill="#aaa7a5"/>
        <path id="Path_55" data-name="Path 55" d="M471.5,384.5a12.054,12.054,0,0,1-6.87-.561C461.5,382.5,451.5,378.5,448.5,376.5s-9-5-9-5,5,3,5,4a22.685,22.685,0,0,0,1,4s.9-1.735.952-1.368.048,2.368,1.048,3.368a40.808,40.808,0,0,0,4.843,3.265,1.3,1.3,0,0,1-.843-1.265c0-1,1,2,3,3a9.965,9.965,0,0,0,4,1l2,2c1,1,6,3,6,3a.979.979,0,0,1-1-1c0-1,1.21,0,5.605,1a42.516,42.516,0,0,0,8.395,1s-5-2-6-3a39.87,39.87,0,0,1-3-4s4,2,5,2h5s-5,0-6-1Z" fill="#5f3d2c"/>
      </g>
      <g id="eyebrows">
        <path id="Path_56" data-name="Path 56" d="M528.5,372.7c-2,3.8,2,1.2,5.5,0,.9-.307,2.44-.733,4.238-1.2,2.676-3.748,5.135-7.334,6.809-10.075C539.006,365.172,530.346,369.19,528.5,372.7Z" fill="#85634d"/>
        <path id="Path_57" data-name="Path 57" d="M419.5,340.5s22,2,27,2,14-1,21,1,23.03,6.31,25.515,11.155,7.018,5.716,10.252,5.781,6.493-9.468,6.493-9.468-1.558,4.339-4.409,4.935,1.606-6.079-.123-7.741S491.5,338.5,491.5,338.5v2c0,1-7.662-4-10.331-4s-16.669-5-21.669-4a99.081,99.081,0,0,1-18,2C435.5,334.5,419.5,340.5,419.5,340.5Z" fill="#85634d"/>
      </g>
    </g>
  </g>
</svg>
