<svg width="550" height="550" viewBox="0 0 550 550" fill="none" xmlns="http://www.w3.org/2000/svg">
<path d="M212.719 251.7C211.133 247.827 209.546 243.977 207.959 240.15C206.419 236.323 204.856 232.497 203.269 228.67C202.896 227.783 202.406 226.547 201.799 224.96C201.239 223.327 200.633 221.46 199.979 219.36C199.373 217.26 198.813 215.09 198.299 212.85C198.393 215.463 198.463 217.937 198.509 220.27C198.556 222.557 198.556 224.75 198.509 226.85C198.509 227.877 198.509 228.927 198.509 230C198.509 231.073 198.486 232.147 198.439 233.22C198.439 234.247 198.439 235.297 198.439 236.37C198.439 237.397 198.439 238.447 198.439 239.52C198.439 240.78 198.393 241.993 198.299 243.16C198.253 244.327 198.183 245.213 198.089 245.82C198.883 245.727 199.839 245.68 200.959 245.68C202.126 245.633 202.943 245.61 203.409 245.61V251H187.449V246.38C188.523 246.333 189.409 246.193 190.109 245.96C190.856 245.727 191.416 245.19 191.789 244.35C192.209 243.51 192.419 242.157 192.419 240.29L192.839 213.48C192.886 212.22 192.933 211.007 192.979 209.84C193.026 208.673 193.073 207.787 193.119 207.18C192.373 207.227 191.439 207.273 190.319 207.32C189.199 207.32 188.383 207.343 187.869 207.39V202H203.339L213.909 229.09C214.329 230.163 214.796 231.423 215.309 232.87C215.823 234.27 216.313 235.647 216.779 237C217.246 238.307 217.596 239.357 217.829 240.15H217.899C218.506 238.517 219.066 236.93 219.579 235.39C220.093 233.85 220.629 232.357 221.189 230.91C223.009 226.057 224.806 221.227 226.579 216.42C228.399 211.613 230.219 206.807 232.039 202H248.209V206.62C247.183 206.667 246.273 206.807 245.479 207.04C244.686 207.273 244.079 207.81 243.659 208.65C243.286 209.443 243.123 210.797 243.169 212.71L244.219 239.52C244.313 240.78 244.313 241.993 244.219 243.16C244.126 244.327 244.033 245.213 243.939 245.82C244.733 245.727 245.689 245.68 246.809 245.68C247.976 245.633 248.793 245.61 249.259 245.61V251H229.799V246.38C230.873 246.333 231.783 246.193 232.529 245.96C233.323 245.727 233.906 245.19 234.279 244.35C234.699 243.51 234.863 242.157 234.769 240.29L234.209 225.45C234.209 224.89 234.163 223.933 234.069 222.58C233.976 221.18 233.883 219.663 233.789 218.03C233.743 216.35 233.696 214.787 233.649 213.34C233.509 213.667 233.369 213.993 233.229 214.32C233.089 214.6 232.973 214.903 232.879 215.23L219.229 251.7H212.719Z" fill="#5A5892"/>
<path d="M273.96 251C273.867 250.347 273.797 249.81 273.75 249.39C273.75 248.923 273.727 248.387 273.68 247.78C272.093 249.367 270.413 250.487 268.64 251.14C266.867 251.793 265.07 252.12 263.25 252.12C260.263 252.12 257.93 251.233 256.25 249.46C254.57 247.687 253.73 245.47 253.73 242.81C253.73 240.57 254.29 238.657 255.41 237.07C256.577 235.483 258.093 234.2 259.96 233.22C261.873 232.193 263.973 231.423 266.26 230.91C268.593 230.35 270.927 230.023 273.26 229.93V226.29C273.26 225.077 273.097 223.98 272.77 223C272.49 222.02 271.977 221.25 271.23 220.69C270.53 220.13 269.527 219.873 268.22 219.92C267.333 219.967 266.47 220.153 265.63 220.48C264.79 220.807 264.067 221.273 263.46 221.88C263.833 222.3 264.067 222.767 264.16 223.28C264.253 223.747 264.3 224.167 264.3 224.54C264.3 225.473 263.927 226.453 263.18 227.48C262.433 228.46 261.243 228.927 259.61 228.88C258.21 228.833 257.137 228.343 256.39 227.41C255.643 226.477 255.27 225.38 255.27 224.12C255.27 222.253 255.923 220.643 257.23 219.29C258.583 217.89 260.38 216.817 262.62 216.07C264.86 215.277 267.333 214.88 270.04 214.88C274.147 214.88 277.32 215.953 279.56 218.1C281.847 220.2 282.99 223.583 282.99 228.25C282.99 229.837 282.99 231.19 282.99 232.31C282.99 233.43 282.967 234.55 282.92 235.67C282.92 236.79 282.92 238.143 282.92 239.73C282.92 240.383 282.897 241.317 282.85 242.53C282.803 243.697 282.733 244.817 282.64 245.89C283.433 245.797 284.273 245.75 285.16 245.75C286.047 245.703 286.723 245.68 287.19 245.68V251H273.96ZM273.19 234.9C271.883 235.04 270.647 235.273 269.48 235.6C268.313 235.927 267.287 236.37 266.4 236.93C265.56 237.49 264.883 238.167 264.37 238.96C263.903 239.753 263.67 240.64 263.67 241.62C263.717 242.927 264.137 243.86 264.93 244.42C265.723 244.98 266.633 245.26 267.66 245.26C268.733 245.26 269.737 245.027 270.67 244.56C271.603 244.093 272.443 243.487 273.19 242.74C273.19 242.273 273.19 241.83 273.19 241.41C273.19 240.943 273.19 240.477 273.19 240.01C273.19 239.17 273.19 238.33 273.19 237.49C273.19 236.603 273.19 235.74 273.19 234.9Z" fill="#5A5892"/>
<path d="M291.209 246.45C292.516 246.45 293.449 246.193 294.009 245.68C294.569 245.167 294.919 244.443 295.059 243.51C295.246 242.53 295.339 241.433 295.339 240.22V228.6C295.339 227.76 295.362 226.803 295.409 225.73C295.456 224.61 295.526 223.537 295.619 222.51C294.872 222.557 293.986 222.603 292.959 222.65C291.979 222.65 291.232 222.673 290.719 222.72V217.4C292.866 217.4 294.686 217.283 296.179 217.05C297.672 216.817 298.839 216.537 299.679 216.21C300.566 215.883 301.172 215.58 301.499 215.3H305.279V239.73C305.279 240.383 305.256 241.317 305.209 242.53C305.162 243.697 305.092 244.817 304.999 245.89C305.746 245.797 306.562 245.75 307.449 245.75C308.382 245.703 309.082 245.68 309.549 245.68V251H291.209V246.45ZM299.959 209.77C298.372 209.77 297.066 209.21 296.039 208.09C295.012 206.97 294.499 205.617 294.499 204.03C294.499 202.443 295.036 201.09 296.109 199.97C297.182 198.85 298.442 198.29 299.889 198.29C301.382 198.29 302.619 198.85 303.599 199.97C304.626 201.09 305.139 202.443 305.139 204.03C305.139 205.617 304.672 206.97 303.739 208.09C302.806 209.21 301.546 209.77 299.959 209.77Z" fill="#5A5892"/>
<path d="M312.709 269.97C310.096 269.97 308.183 269.363 306.969 268.15C305.709 266.983 305.079 265.677 305.079 264.23C305.079 263.017 305.476 261.92 306.269 260.94C307.016 260.007 308.089 259.517 309.489 259.47C310.749 259.423 311.776 259.797 312.569 260.59C313.363 261.383 313.759 262.387 313.759 263.6C313.759 263.787 313.736 263.973 313.689 264.16C313.689 264.347 313.666 264.557 313.619 264.79C313.899 264.977 314.296 265.07 314.809 265.07C315.696 265.07 316.326 264.767 316.699 264.16C317.119 263.6 317.399 262.9 317.539 262.06C317.679 261.22 317.749 260.473 317.749 259.82L317.539 228.6C317.539 227.76 317.563 226.803 317.609 225.73C317.656 224.61 317.726 223.537 317.819 222.51C317.073 222.557 316.186 222.603 315.159 222.65C314.179 222.65 313.433 222.673 312.919 222.72V217.4C315.113 217.4 316.933 217.283 318.379 217.05C319.873 216.817 321.039 216.537 321.879 216.21C322.766 215.883 323.373 215.58 323.699 215.3H327.479V250.86C327.479 255.153 326.826 258.723 325.519 261.57C324.259 264.417 322.509 266.517 320.269 267.87C318.029 269.27 315.509 269.97 312.709 269.97ZM322.509 209.77C320.923 209.77 319.616 209.21 318.589 208.09C317.563 206.97 317.049 205.617 317.049 204.03C317.049 202.443 317.586 201.09 318.659 199.97C319.733 198.85 320.993 198.29 322.439 198.29C323.933 198.29 325.169 198.85 326.149 199.97C327.176 201.09 327.689 202.443 327.689 204.03C327.689 205.617 327.223 206.97 326.289 208.09C325.356 209.21 324.096 209.77 322.509 209.77Z" fill="#5A5892"/>
<path d="M353.462 251C353.369 250.347 353.299 249.81 353.252 249.39C353.252 248.923 353.229 248.387 353.182 247.78C351.595 249.367 349.915 250.487 348.142 251.14C346.369 251.793 344.572 252.12 342.752 252.12C339.765 252.12 337.432 251.233 335.752 249.46C334.072 247.687 333.232 245.47 333.232 242.81C333.232 240.57 333.792 238.657 334.912 237.07C336.079 235.483 337.595 234.2 339.462 233.22C341.375 232.193 343.475 231.423 345.762 230.91C348.095 230.35 350.429 230.023 352.762 229.93V226.29C352.762 225.077 352.599 223.98 352.272 223C351.992 222.02 351.479 221.25 350.732 220.69C350.032 220.13 349.029 219.873 347.722 219.92C346.835 219.967 345.972 220.153 345.132 220.48C344.292 220.807 343.569 221.273 342.962 221.88C343.335 222.3 343.569 222.767 343.662 223.28C343.755 223.747 343.802 224.167 343.802 224.54C343.802 225.473 343.429 226.453 342.682 227.48C341.935 228.46 340.745 228.927 339.112 228.88C337.712 228.833 336.639 228.343 335.892 227.41C335.145 226.477 334.772 225.38 334.772 224.12C334.772 222.253 335.425 220.643 336.732 219.29C338.085 217.89 339.882 216.817 342.122 216.07C344.362 215.277 346.835 214.88 349.542 214.88C353.649 214.88 356.822 215.953 359.062 218.1C361.349 220.2 362.492 223.583 362.492 228.25C362.492 229.837 362.492 231.19 362.492 232.31C362.492 233.43 362.469 234.55 362.422 235.67C362.422 236.79 362.422 238.143 362.422 239.73C362.422 240.383 362.399 241.317 362.352 242.53C362.305 243.697 362.235 244.817 362.142 245.89C362.935 245.797 363.775 245.75 364.662 245.75C365.549 245.703 366.225 245.68 366.692 245.68V251H353.462ZM352.692 234.9C351.385 235.04 350.149 235.273 348.982 235.6C347.815 235.927 346.789 236.37 345.902 236.93C345.062 237.49 344.385 238.167 343.872 238.96C343.405 239.753 343.172 240.64 343.172 241.62C343.219 242.927 343.639 243.86 344.432 244.42C345.225 244.98 346.135 245.26 347.162 245.26C348.235 245.26 349.239 245.027 350.172 244.56C351.105 244.093 351.945 243.487 352.692 242.74C352.692 242.273 352.692 241.83 352.692 241.41C352.692 240.943 352.692 240.477 352.692 240.01C352.692 239.17 352.692 238.33 352.692 237.49C352.692 236.603 352.692 235.74 352.692 234.9Z" fill="#5A5892"/>
<path d="M180.789 336.38C181.863 336.333 182.749 336.193 183.449 335.96C184.196 335.727 184.756 335.19 185.129 334.35C185.549 333.51 185.759 332.157 185.759 330.29V303.48C185.759 302.22 185.783 301.007 185.829 299.84C185.923 298.673 185.993 297.787 186.039 297.18C185.293 297.227 184.359 297.273 183.239 297.32C182.119 297.32 181.303 297.343 180.789 297.39V292C184.103 291.953 187.416 291.93 190.729 291.93C194.043 291.93 197.356 291.907 200.669 291.86C204.776 291.813 208.346 292.35 211.379 293.47C214.459 294.59 216.816 296.317 218.449 298.65C220.129 300.983 220.923 304.017 220.829 307.75C220.783 309.617 220.339 311.46 219.499 313.28C218.659 315.053 217.423 316.687 215.789 318.18C214.156 319.627 212.103 320.817 209.629 321.75C207.156 322.683 204.263 323.197 200.949 323.29C199.923 323.337 199.013 323.36 198.219 323.36C197.473 323.36 196.703 323.337 195.909 323.29V329.45C195.909 330.757 195.886 331.993 195.839 333.16C195.793 334.327 195.723 335.213 195.629 335.82C196.143 335.773 196.796 335.75 197.589 335.75C198.383 335.703 199.153 335.68 199.899 335.68C200.693 335.633 201.253 335.61 201.579 335.61V341H180.789V336.38ZM195.909 318.04C196.423 318.087 196.936 318.133 197.449 318.18C197.963 318.227 198.499 318.25 199.059 318.25C201.626 318.25 203.703 317.83 205.289 316.99C206.923 316.103 208.113 314.843 208.859 313.21C209.606 311.53 209.979 309.5 209.979 307.12C209.979 304.787 209.653 302.92 208.999 301.52C208.393 300.12 207.599 299.093 206.619 298.44C205.639 297.74 204.613 297.297 203.539 297.11C202.466 296.877 201.486 296.76 200.599 296.76C199.619 296.76 198.779 296.877 198.079 297.11C197.379 297.343 196.843 297.857 196.469 298.65C196.096 299.443 195.909 300.657 195.909 302.29V318.04Z" fill="#5A5892"/>
<path d="M245.316 336.45C246.623 336.45 247.556 336.193 248.116 335.68C248.723 335.167 249.096 334.443 249.236 333.51C249.423 332.53 249.516 331.433 249.516 330.22L249.446 320.28C249.446 317.247 248.979 315.007 248.046 313.56C247.159 312.067 245.736 311.32 243.776 311.32C242.609 311.32 241.443 311.577 240.276 312.09C239.156 312.603 238.199 313.21 237.406 313.91V329.73C237.406 330.383 237.383 331.317 237.336 332.53C237.289 333.697 237.219 334.817 237.126 335.89C237.919 335.797 238.759 335.75 239.646 335.75C240.533 335.703 241.209 335.68 241.676 335.68V341H223.336V336.45C224.643 336.45 225.576 336.193 226.136 335.68C226.743 335.167 227.116 334.443 227.256 333.51C227.396 332.53 227.466 331.433 227.466 330.22V301.45C227.466 300.61 227.489 299.653 227.536 298.58C227.583 297.46 227.653 296.387 227.746 295.36C226.999 295.407 226.113 295.453 225.086 295.5C224.106 295.5 223.359 295.523 222.846 295.57V290.25C225.039 290.25 226.859 290.133 228.306 289.9C229.799 289.667 230.966 289.387 231.806 289.06C232.693 288.733 233.299 288.43 233.626 288.15H237.406V308.8C238.339 308.053 239.413 307.4 240.626 306.84C241.839 306.233 243.076 305.767 244.336 305.44C245.596 305.067 246.693 304.88 247.626 304.88C251.919 304.88 254.953 306.117 256.726 308.59C258.499 311.017 259.409 314.937 259.456 320.35V329.73C259.456 330.383 259.433 331.317 259.386 332.53C259.339 333.697 259.269 334.817 259.176 335.89C259.923 335.797 260.739 335.75 261.626 335.75C262.513 335.703 263.213 335.68 263.726 335.68V341H245.316V336.45Z" fill="#5A5892"/>
<path d="M267.933 336.45C269.239 336.45 270.173 336.193 270.733 335.68C271.293 335.167 271.643 334.443 271.783 333.51C271.969 332.53 272.063 331.433 272.063 330.22V318.6C272.063 317.76 272.086 316.803 272.133 315.73C272.179 314.61 272.249 313.537 272.343 312.51C271.596 312.557 270.709 312.603 269.683 312.65C268.703 312.65 267.956 312.673 267.443 312.72V307.4C269.589 307.4 271.409 307.283 272.903 307.05C274.396 306.817 275.563 306.537 276.403 306.21C277.289 305.883 277.896 305.58 278.223 305.3H282.003V329.73C282.003 330.383 281.979 331.317 281.933 332.53C281.886 333.697 281.816 334.817 281.723 335.89C282.469 335.797 283.286 335.75 284.173 335.75C285.106 335.703 285.806 335.68 286.273 335.68V341H267.933V336.45ZM276.683 299.77C275.096 299.77 273.789 299.21 272.763 298.09C271.736 296.97 271.223 295.617 271.223 294.03C271.223 292.443 271.759 291.09 272.833 289.97C273.906 288.85 275.166 288.29 276.613 288.29C278.106 288.29 279.343 288.85 280.323 289.97C281.349 291.09 281.863 292.443 281.863 294.03C281.863 295.617 281.396 296.97 280.463 298.09C279.529 299.21 278.269 299.77 276.683 299.77Z" fill="#5A5892"/>
<path d="M289.713 336.45C291.02 336.45 291.953 336.193 292.513 335.68C293.12 335.167 293.493 334.443 293.633 333.51C293.773 332.53 293.843 331.433 293.843 330.22V301.45C293.843 300.61 293.866 299.653 293.913 298.58C293.96 297.46 294.03 296.387 294.123 295.36C293.376 295.407 292.49 295.453 291.463 295.5C290.483 295.5 289.736 295.523 289.223 295.57V290.25C291.416 290.25 293.236 290.133 294.683 289.9C296.176 289.667 297.343 289.387 298.183 289.06C299.07 288.733 299.676 288.43 300.003 288.15H303.783V329.73C303.783 330.383 303.76 331.317 303.713 332.53C303.666 333.697 303.596 334.817 303.503 335.89C304.296 335.797 305.136 335.75 306.023 335.75C306.91 335.703 307.586 335.68 308.053 335.68V341H289.713V336.45Z" fill="#5A5892"/>
<path d="M312.64 336.45C313.946 336.45 314.88 336.193 315.44 335.68C316 335.167 316.35 334.443 316.49 333.51C316.676 332.53 316.77 331.433 316.77 330.22V318.6C316.77 317.76 316.793 316.803 316.84 315.73C316.886 314.61 316.956 313.537 317.05 312.51C316.303 312.557 315.416 312.603 314.39 312.65C313.41 312.65 312.663 312.673 312.15 312.72V307.4C314.296 307.4 316.116 307.283 317.61 307.05C319.103 306.817 320.27 306.537 321.11 306.21C321.996 305.883 322.603 305.58 322.93 305.3H326.71V329.73C326.71 330.383 326.686 331.317 326.64 332.53C326.593 333.697 326.523 334.817 326.43 335.89C327.176 335.797 327.993 335.75 328.88 335.75C329.813 335.703 330.513 335.68 330.98 335.68V341H312.64V336.45ZM321.39 299.77C319.803 299.77 318.496 299.21 317.47 298.09C316.443 296.97 315.93 295.617 315.93 294.03C315.93 292.443 316.466 291.09 317.54 289.97C318.613 288.85 319.873 288.29 321.32 288.29C322.813 288.29 324.05 288.85 325.03 289.97C326.056 291.09 326.57 292.443 326.57 294.03C326.57 295.617 326.103 296.97 325.17 298.09C324.236 299.21 322.976 299.77 321.39 299.77Z" fill="#5A5892"/>
<path d="M334.84 358.85V354.3C336.147 354.3 337.08 354.043 337.64 353.53C338.247 353.017 338.62 352.27 338.76 351.29C338.947 350.357 339.04 349.283 339.04 348.07V318.46C339.04 317.62 339.063 316.687 339.11 315.66C339.157 314.587 339.227 313.537 339.32 312.51C338.573 312.557 337.687 312.603 336.66 312.65C335.633 312.65 334.863 312.673 334.35 312.72V307.4C336.543 307.4 338.363 307.283 339.81 307.05C341.303 306.817 342.47 306.537 343.31 306.21C344.197 305.883 344.803 305.58 345.13 305.3H348.56C348.653 305.767 348.723 306.35 348.77 307.05C348.817 307.703 348.863 308.24 348.91 308.66C350.543 307.26 352.153 306.28 353.74 305.72C355.373 305.16 356.913 304.88 358.36 304.88C361.16 304.88 363.61 305.603 365.71 307.05C367.857 308.497 369.513 310.55 370.68 313.21C371.893 315.87 372.5 318.997 372.5 322.59C372.5 326.323 371.777 329.683 370.33 332.67C368.883 335.61 366.853 337.92 364.24 339.6C361.673 341.28 358.64 342.12 355.14 342.12C353.88 342.12 352.737 341.98 351.71 341.7C350.73 341.467 349.797 341.187 348.91 340.86V347.58C348.91 348.233 348.887 349.143 348.84 350.31C348.84 351.523 348.793 352.667 348.7 353.74C349.447 353.647 350.263 353.577 351.15 353.53C352.037 353.53 352.713 353.53 353.18 353.53V358.85H334.84ZM354.02 336.87C356.167 336.823 357.823 336.193 358.99 334.98C360.203 333.72 361.043 332.087 361.51 330.08C361.977 328.073 362.21 325.927 362.21 323.64C362.21 321.493 361.953 319.463 361.44 317.55C360.927 315.637 360.11 314.097 358.99 312.93C357.87 311.717 356.4 311.133 354.58 311.18C353.413 311.227 352.34 311.53 351.36 312.09C350.38 312.603 349.563 313.327 348.91 314.26C348.91 315.707 348.91 317.153 348.91 318.6C348.91 320 348.91 321.4 348.91 322.8C348.91 324.2 348.91 325.623 348.91 327.07C348.91 328.47 348.91 329.893 348.91 331.34C348.91 332.74 348.91 334.163 348.91 335.61C349.423 335.937 350.147 336.24 351.08 336.52C352.013 336.8 352.993 336.917 354.02 336.87Z" fill="#5A5892"/>
<path d="M119.411 203.974C118.645 205.529 117.654 206.423 116.439 206.656C115.2 206.878 113.695 206.552 111.925 205.68C110.132 204.795 105.444 201.548 97.864 195.937L93.0878 195.946C92.6743 192.383 93.0159 189.489 94.1126 187.264C94.8083 185.853 95.9084 185.31 97.4129 185.636C98.5439 183.161 99.5378 179.607 100.394 174.975C101.565 175.315 102.521 175.667 103.263 176.033C104.793 176.787 105.712 177.969 106.019 179.577C106.314 181.15 106.084 182.701 105.33 184.232C104.575 185.763 103.45 187.111 101.954 188.276C101.954 188.276 102.486 188.673 103.552 189.466C104.403 190.093 105.69 191.07 107.415 192.396C108.007 191.677 108.48 190.959 108.834 190.241C109.126 189.166 109.382 187.954 109.601 186.605C110.066 186.686 110.765 186.957 111.698 187.417C112.607 187.865 113.154 188.595 113.338 189.608C113.523 190.62 113.385 191.593 112.925 192.526C112.465 193.459 111.892 194.35 111.205 195.201C112.582 196.207 113.605 196.875 114.275 197.205C116.595 198.349 118.506 198.845 120.008 198.694C120.377 200.659 120.178 202.42 119.411 203.974Z" fill="#5D5C71"/>
<path d="M126.123 181.119C125.239 180.522 123.675 179.144 121.433 176.986C119.205 174.805 117.205 172.763 115.434 170.859L111.618 170.792C112.246 167.194 112.933 164.842 113.68 163.737C114.441 162.61 115.529 162.524 116.943 163.479C117.716 164.002 119.083 165.456 121.044 167.842L121.433 167.622C117.757 162.822 116.717 159.24 118.314 156.875C119.045 155.793 119.936 155.188 120.987 155.061C122.038 154.934 122.973 155.147 123.79 155.699C125.006 156.52 125.739 157.674 125.988 159.163C126.238 160.651 125.751 162.301 124.528 164.113C122.677 166.853 124.569 170.126 130.204 173.932C131.574 174.857 132.737 175.304 133.691 175.273C133.848 177.375 133.539 179 132.763 180.149C131.076 182.646 128.863 182.969 126.123 181.119Z" fill="#5D5C71"/>
<path d="M137.53 139.355C138.526 138.242 139.827 137.688 141.432 137.693C143.055 137.679 144.722 138.436 146.431 139.966C148.12 141.477 149.423 143.18 150.34 145.074C151.237 146.951 151.707 148.785 151.75 150.577C151.793 152.368 151.521 154.111 150.936 155.806C150.33 157.482 149.449 158.966 148.293 160.258C145.964 162.861 143.408 164.278 140.626 164.508C137.843 164.738 135.27 163.795 132.905 161.679C129.706 158.816 128.028 155.472 127.873 151.647C127.715 147.784 129.059 144.263 131.904 141.083C132.544 140.368 133.264 139.724 134.063 139.15C134.914 139.519 135.766 140.066 136.618 140.793C136.853 140.251 137.157 139.772 137.53 139.355ZM138.393 146.729C137.836 146.231 137.326 145.541 136.861 144.661C136.415 143.76 136.25 142.825 136.366 141.855C134.575 144.976 134.02 147.736 134.701 150.135C135.287 152.198 136.296 153.87 137.727 155.151C139.158 156.431 140.568 157.174 141.958 157.38C143.346 157.549 144.449 157.176 145.267 156.262C147.081 154.235 147.04 151.622 145.144 148.422C142.71 149.142 140.459 148.578 138.393 146.729Z" fill="#5D5C71"/>
<path d="M163.514 145.328C162.291 146.317 161.129 146.725 160.029 146.552C158.928 146.378 157.951 145.763 157.095 144.705C156.24 143.647 155.056 141.759 153.543 139.039C152.05 136.302 150.736 133.764 149.599 131.425L145.97 130.244C147.084 127.423 148.512 125.309 150.254 123.9C151.996 122.492 153.504 122.576 154.778 124.152C155.616 125.189 156.233 126.439 156.628 127.903L157.064 127.807C156.215 122.218 157.501 118.041 160.923 115.274C163.432 113.246 165.701 113.486 167.73 115.995C168.601 117.073 169.766 119.15 171.223 122.224C172.7 125.282 173.967 127.464 175.023 128.77C176.08 130.076 177.069 130.854 177.99 131.104C177.713 133.008 176.962 134.455 175.739 135.444C173.354 137.372 171.122 137.051 169.043 134.479C168.272 133.526 167.275 131.657 166.053 128.873C164.831 126.088 163.943 124.354 163.39 123.67C162.636 122.737 161.906 122.555 161.201 123.125C160.62 123.595 160.166 124.39 159.839 125.512C159.495 126.614 159.322 127.885 159.321 129.326C159.324 130.729 159.624 132.287 160.22 134C160.799 135.692 161.642 137.223 162.749 138.591C163.839 139.939 164.844 140.738 165.766 140.987C165.488 142.892 164.738 144.339 163.514 145.328Z" fill="#5D5C71"/>
<path d="M174.548 117.934C174.002 117.391 173.563 116.847 173.232 116.299C172.556 115.181 172.376 114.136 172.693 113.166C173.009 112.195 173.693 111.392 174.742 110.758C174.025 109.571 172.937 108.468 171.479 107.449C172.1 105.951 172.743 104.721 173.407 103.758C174.08 102.759 174.931 101.949 175.957 101.328C176.984 100.707 177.809 100.473 178.431 100.626C179.063 100.743 179.613 101.189 180.082 101.965C180.552 102.741 181.123 104.047 181.798 105.883C182.627 105.194 183.434 104.441 184.218 103.624C184.668 104.007 185.12 104.574 185.575 105.327C186.031 106.08 186.162 106.967 185.969 107.988C185.785 108.972 185.134 109.802 184.016 110.478L183.502 110.788C184.931 115.004 186.252 118.117 187.466 120.124C188.681 122.132 189.883 123.322 191.073 123.693C190.472 125.584 189.452 126.964 188.015 127.833C186.577 128.703 185.284 128.908 184.134 128.451C182.994 127.956 181.878 126.808 180.788 125.005C180.126 123.91 178.786 120.793 176.769 115.655C175.953 116.367 175.213 117.127 174.548 117.934Z" fill="#5D5C71"/>
<path d="M217.823 113.817C216.327 114.303 215.071 114.191 214.056 113.483C213.033 112.75 212.217 111.444 211.609 109.567C210.992 107.665 210.05 102.041 208.785 92.6952L205.448 89.2781C207.714 86.4967 210.026 84.7234 212.385 83.9582C213.882 83.4727 215.038 83.8827 215.854 85.1879C218.695 84.1821 222.062 82.3751 225.954 79.7671C226.428 80.5383 226.797 81.3298 227.06 82.1415C227.727 84.1961 227.544 85.9656 226.512 87.4499C225.504 88.9259 223.936 90.0095 221.805 90.7007C220.359 91.1697 218.84 91.326 217.247 91.1698C217.415 92.3771 217.664 94.3566 217.996 97.1085C218.992 96.9816 219.82 96.8112 220.48 96.5973C221.454 96.057 222.501 95.3951 223.62 94.6114C223.887 95.0015 224.181 95.6911 224.501 96.6804C224.814 97.6443 224.672 98.5455 224.075 99.384C223.478 100.222 222.685 100.802 221.695 101.123C220.731 101.436 219.705 101.642 218.616 101.743C218.856 103.432 219.206 104.986 219.667 106.407L225.83 104.407C227.668 103.503 229.448 102.379 231.171 101.035C231.471 101.442 231.748 102.039 232.004 102.825C232.489 104.322 232.477 105.798 231.968 107.253C231.484 108.699 230.468 109.673 228.921 110.175C228.109 110.439 226.864 110.66 225.184 110.841C223.538 111.038 222.322 111.222 221.536 111.393C220.557 112.524 219.32 113.332 217.823 113.817Z" fill="#5D5C71"/>
<path d="M244.298 106.645C242.743 106.884 241.534 106.652 240.67 105.949C239.806 105.245 239.271 104.222 239.064 102.878C238.857 101.533 238.784 99.3052 238.844 96.1931C238.931 93.0769 239.072 90.2223 239.266 87.6292L236.724 84.7829C239.106 82.9053 241.404 81.7961 243.618 81.4553C245.832 81.1145 247.093 81.9456 247.401 83.9487C247.604 85.2665 247.508 86.6573 247.113 88.1212L247.538 88.258C249.616 83.0007 252.829 80.0373 257.178 79.3679C260.367 78.8769 262.207 80.226 262.698 83.4151C262.909 84.7857 262.871 87.1659 262.583 90.5557C262.322 93.9416 262.319 96.4647 262.575 98.1252C262.83 99.7856 263.294 100.955 263.965 101.635C262.767 103.141 261.39 104.014 259.835 104.253C256.804 104.72 255.037 103.319 254.534 100.051C254.347 98.8385 254.426 96.7219 254.771 93.701C255.115 90.6801 255.22 88.7348 255.086 87.865C254.904 86.679 254.365 86.1549 253.468 86.2929C252.73 86.4065 251.938 86.8658 251.09 87.6707C250.239 88.4493 249.45 89.4611 248.725 90.706C248.021 91.9205 247.496 93.4178 247.15 95.1979C246.799 96.9517 246.758 98.6983 247.025 100.438C247.289 102.151 247.757 103.347 248.428 104.026C247.23 105.533 245.853 106.406 244.298 106.645Z" fill="#5D5C71"/>
<path d="M282.283 99.9967L281.885 99.7923C279.775 102.516 277.281 103.862 274.401 103.83C272.268 103.807 270.464 102.947 268.989 101.251C267.541 99.5284 266.833 97.2272 266.864 94.3473C266.903 90.7742 268.192 87.5348 270.731 84.6291C271.973 83.2027 273.626 82.0607 275.689 81.2033C277.752 80.3191 280.05 79.891 282.583 79.9187C283.063 79.924 283.916 79.9867 285.141 80.1068C285.201 79.5474 285.328 78.8688 285.524 78.0709L283.319 74.8465C286.673 72.9365 289.311 71.992 291.231 72.013C292.324 72.025 293.095 72.2602 293.543 72.7184C293.992 73.15 294.209 73.9791 294.196 75.2057C294.183 76.4057 293.545 79.8122 292.284 85.4254C291.049 91.0389 290.418 95.0322 290.392 97.4054C290.366 99.7519 290.763 101.303 291.581 102.059C290.074 103.349 288.507 103.985 286.88 103.967C285.28 103.95 284.111 103.537 283.373 102.729C282.636 101.894 282.272 100.983 282.283 99.9967ZM274.4 92.9098C274.384 94.4297 274.757 95.6339 275.521 96.5223C276.311 97.411 277.293 97.8618 278.466 97.8747C279.986 97.8914 281.381 97.1866 282.65 95.7604C283.128 91.0187 283.773 86.9189 284.585 83.4609C281.518 83.4273 279.054 84.387 277.193 86.34C275.358 88.2934 274.427 90.4833 274.4 92.9098Z" fill="#5D5C71"/>
<path d="M316.407 108.742C314.89 108.324 313.903 107.54 313.445 106.39C312.995 105.215 313.032 103.676 313.556 101.774C314.088 99.8457 316.396 94.6317 320.482 86.1319L319.576 81.4424C322.998 80.3666 325.905 80.1582 328.296 80.8173C329.812 81.2355 330.552 82.214 330.515 83.7528C333.442 84.4765 337.247 84.8202 341.932 84.784C341.904 85.689 341.776 86.5529 341.549 87.3755C340.975 89.4578 339.849 90.8347 338.17 91.506C336.517 92.1844 334.611 92.2259 332.451 91.6306C330.986 91.2267 329.632 90.5213 328.388 89.5145C327.863 90.6147 326.982 92.405 325.745 94.8854C326.647 95.3276 327.432 95.6408 328.1 95.8251C329.211 95.91 330.449 95.9332 331.815 95.8949C331.823 96.3674 331.689 97.1049 331.413 98.1075C331.143 99.0844 330.529 99.7586 329.569 100.13C328.609 100.502 327.628 100.549 326.625 100.273C325.648 100.004 324.677 99.6116 323.713 99.0967C322.984 100.638 322.421 102.129 322.024 103.569L328.271 105.291C330.302 105.547 332.407 105.587 334.585 105.413C334.612 105.919 334.515 106.57 334.296 107.367C333.878 108.883 333.056 110.109 331.83 111.044C330.63 111.985 329.246 112.24 327.677 111.807C326.855 111.581 325.693 111.08 324.191 110.307C322.708 109.566 321.591 109.051 320.841 108.761C319.402 109.166 317.924 109.16 316.407 108.742Z" fill="#5D5C71"/>
<path d="M342.46 117.321C341.03 116.665 340.148 115.806 339.814 114.743C339.479 113.681 339.596 112.531 340.163 111.295C340.729 110.059 341.894 108.158 343.657 105.593C345.445 103.039 347.133 100.732 348.722 98.6741L348.165 94.8983C351.187 94.6413 353.716 94.9795 355.752 95.9131C357.789 96.8468 358.384 98.2347 357.54 100.077C356.984 101.289 356.138 102.397 355.003 103.402L355.283 103.751C359.911 100.504 364.224 99.7977 368.224 101.632C371.157 102.976 371.951 105.115 370.606 108.048C370.028 109.309 368.686 111.275 366.581 113.948C364.5 116.631 363.109 118.736 362.409 120.264C361.709 121.791 361.452 123.022 361.639 123.959C359.809 124.557 358.18 124.529 356.75 123.873C353.962 122.595 353.257 120.453 354.635 117.447C355.147 116.332 356.377 114.608 358.327 112.275C360.277 109.942 361.435 108.376 361.802 107.576C362.302 106.485 362.14 105.751 361.316 105.373C360.637 105.062 359.723 105.009 358.572 105.215C357.433 105.396 356.218 105.807 354.927 106.448C353.671 107.075 352.409 108.036 351.14 109.332C349.882 110.603 348.886 112.039 348.153 113.639C347.43 115.214 347.163 116.47 347.349 117.407C345.52 118.005 343.89 117.977 342.46 117.321Z" fill="#5D5C71"/>
<path d="M376.068 121.489C375.307 122.616 374.998 123.743 375.14 124.868C375.318 125.985 375.872 126.857 376.8 127.484C378.06 128.334 379.59 128.498 381.39 127.976C383.094 126.262 385.676 123.484 389.136 119.643C386.661 117.972 384.198 117.356 381.747 117.793C379.319 118.246 377.426 119.477 376.068 121.489ZM376.375 139.985C374.396 140.676 372.354 140.89 370.247 140.627C368.126 140.386 366.192 139.676 364.446 138.498C362.722 137.334 361.553 136.063 360.939 134.684C360.333 133.342 360.403 132.118 361.149 131.013C361.894 129.908 363.131 129.053 364.857 128.449C364.86 130.638 365.878 132.419 367.911 133.791C369.238 134.686 370.852 134.939 372.755 134.55C374.666 134.199 376.547 133.056 378.399 131.121L378.18 130.731C375.059 131.971 372.272 131.763 369.818 130.107C367.961 128.854 366.987 127.152 366.896 124.999C366.804 122.846 367.564 120.576 369.175 118.189C370.726 115.89 372.773 114.215 375.316 113.164C378.23 111.945 381.252 111.781 384.383 112.671C386.111 113.162 387.616 113.84 388.898 114.705C390.18 115.57 391.203 116.389 391.968 117.163C391.698 117.849 391.41 118.443 391.104 118.944C392.62 118.938 393.909 119.293 394.97 120.009C396.495 121.038 396.728 122.337 395.669 123.907C394.61 125.476 393.422 127.023 392.104 128.546C390.801 130.048 389.306 131.596 387.618 133.192C385.93 134.787 384.122 136.156 382.192 137.299C380.3 138.435 378.361 139.33 376.375 139.985Z" fill="#5D5C71"/>
<path d="M416.903 129.406C416.236 130.169 415.255 130.48 413.96 130.34C412.683 130.18 411.533 129.653 410.509 128.758C409.485 127.862 408.848 126.951 408.597 126.023C408.366 125.112 408.548 124.316 409.145 123.633C409.953 122.71 411.016 122.364 412.336 122.597C413.655 122.83 414.797 123.368 415.761 124.21C416.724 125.053 417.322 125.929 417.553 126.84C417.804 127.768 417.587 128.623 416.903 129.406ZM390.415 147.85C389.17 146.762 388.539 145.661 388.521 144.547C388.503 143.433 389.047 142.244 390.153 140.979C391.276 139.694 394.911 136.833 401.058 132.396L401.583 128.392C405.409 129.08 408.045 130.057 409.49 131.32C410.313 132.04 410.738 132.73 410.763 133.39C410.806 134.029 410.485 134.741 409.8 135.523C409.537 135.825 407.621 137.266 404.052 139.849C400.483 142.432 398.093 144.416 396.882 145.801C395.671 147.186 395.14 148.422 395.288 149.508C393.304 149.508 391.679 148.956 390.415 147.85Z" fill="#5D5C71"/>
<path d="M400.108 157.183C399.059 156.011 398.593 154.871 398.711 153.764C398.829 152.656 399.394 151.648 400.408 150.741C401.421 149.834 403.248 148.556 405.888 146.908C408.546 145.28 411.015 143.839 413.293 142.586L414.29 138.902C417.164 139.873 419.347 141.193 420.842 142.861C422.336 144.53 422.328 146.041 420.818 147.393C419.825 148.282 418.607 148.961 417.165 149.429L417.283 149.86C422.822 148.731 427.059 149.805 429.994 153.083C432.146 155.487 432.02 157.765 429.616 159.917C428.583 160.842 426.568 162.11 423.571 163.719C420.592 165.349 418.476 166.724 417.224 167.845C415.973 168.965 415.246 169.992 415.043 170.925C413.127 170.744 411.644 170.067 410.594 168.895C408.549 166.61 408.758 164.365 411.221 162.159C412.135 161.341 413.952 160.252 416.671 158.891C419.39 157.53 421.077 156.557 421.733 155.97C422.627 155.169 422.771 154.431 422.166 153.756C421.668 153.199 420.851 152.786 419.714 152.515C418.597 152.227 417.318 152.119 415.879 152.19C414.478 152.264 412.937 152.642 411.256 153.323C409.595 153.987 408.109 154.906 406.798 156.08C405.507 157.236 404.76 158.281 404.557 159.214C402.641 159.032 401.158 158.356 400.108 157.183Z" fill="#5D5C71"/>
<path d="M420.955 184.092C418.986 181.015 418.259 178.124 418.776 175.419C419.307 172.736 420.931 170.525 423.649 168.786C427.265 166.471 430.987 165.831 434.814 166.864C438.678 167.905 441.81 170.301 444.211 174.052C445.548 176.141 446.09 178.026 445.836 179.708C445.605 181.376 444.726 182.698 443.199 183.676C441.11 185.013 438.715 185.105 436.015 183.952C433.351 182.807 430.649 180.12 427.91 175.889C426.516 176.876 425.59 177.928 425.133 179.044C424.698 180.145 424.761 181.134 425.321 182.01C425.882 182.886 426.655 183.452 427.642 183.707C428.643 183.984 429.806 183.699 431.131 182.851C433.23 186.13 433.504 188.266 431.954 189.258C430.629 190.106 428.865 190.095 426.662 189.225C424.482 188.341 422.579 186.63 420.955 184.092ZM439.903 176.002C439.17 174.857 437.921 174.168 436.158 173.935C434.408 173.725 432.622 173.902 430.799 174.467C432.417 176.598 434 177.96 435.55 178.551C437.136 179.15 438.401 179.148 439.345 178.544C439.794 178.256 440.071 177.873 440.176 177.394C440.296 176.938 440.205 176.474 439.903 176.002Z" fill="#5D5C71"/>
<path d="M433.749 208.569C432.298 205.216 432.044 202.246 432.988 199.659C433.942 197.096 435.899 195.174 438.861 193.892C442.801 192.187 446.577 192.151 450.189 193.784C453.837 195.431 456.545 198.298 458.313 202.385C459.298 204.661 459.531 206.609 459.011 208.229C458.516 209.838 457.437 211.002 455.772 211.722C453.496 212.707 451.118 212.414 448.637 210.844C446.191 209.287 443.955 206.202 441.929 201.587C440.394 202.338 439.312 203.228 438.682 204.256C438.076 205.273 437.979 206.259 438.392 207.214C438.806 208.168 439.478 208.85 440.411 209.26C441.355 209.695 442.548 209.599 443.992 208.975C445.539 212.548 445.467 214.7 443.779 215.43C442.335 216.055 440.595 215.762 438.56 214.551C436.549 213.329 434.946 211.335 433.749 208.569ZM453.748 203.62C453.208 202.372 452.086 201.492 450.383 200.979C448.69 200.492 446.898 200.38 445.008 200.646C446.263 203.009 447.608 204.606 449.043 205.438C450.513 206.284 451.762 206.484 452.79 206.039C453.28 205.828 453.615 205.494 453.795 205.038C453.986 204.607 453.97 204.134 453.748 203.62Z" fill="#5D5C71"/>
<path d="M444.4 222.993C445.427 222.706 447.49 222.407 450.587 222.095C453.691 221.809 456.542 221.608 459.14 221.491L461.662 218.627C463.997 221.436 465.344 223.482 465.703 224.766C466.069 226.076 465.43 226.96 463.786 227.42C462.887 227.671 460.894 227.771 457.807 227.72L457.722 228.159C463.76 228.465 467.163 229.993 467.931 232.741C468.283 233.999 468.166 235.07 467.582 235.953C466.999 236.836 466.231 237.41 465.281 237.676C463.869 238.07 462.514 237.881 461.219 237.108C459.923 236.335 458.981 234.895 458.392 232.789C457.502 229.604 453.783 228.927 447.234 230.757C445.641 231.202 444.548 231.798 443.954 232.545C442.251 231.304 441.212 230.016 440.839 228.681C440.029 225.779 441.215 223.883 444.4 222.993Z" fill="#5D5C71"/>
<path d="M455.02 263.491C454.951 261.946 455.373 260.659 456.288 259.631C457.231 258.627 458.461 258.091 459.98 258.023C461.498 257.955 462.883 258.48 464.135 259.598C465.414 260.742 466.088 262.086 466.158 263.631C466.228 265.203 465.793 266.504 464.852 267.534C463.937 268.563 462.72 269.111 461.202 269.18C459.684 269.248 458.285 268.71 457.005 267.566C455.753 266.422 455.091 265.063 455.02 263.491Z" fill="#5D5C71"/>
<path d="M438.752 331.435C439.166 329.752 439.941 328.665 441.077 328.175C442.239 327.692 443.765 327.682 445.656 328.147C447.546 328.611 451.747 330.288 458.259 333.178L458.412 332.557C456.728 330.468 454.576 328.553 451.956 326.811C449.336 325.069 446.902 323.799 444.655 322.999C443.775 321.438 443.539 319.828 443.946 318.171C444.111 317.498 444.491 316.959 445.084 316.556C445.697 316.185 446.66 315.899 447.972 315.7C450.615 315.333 455.368 315.773 462.229 317.019L462.381 316.397C457.125 313.761 453.358 312.163 451.079 311.603C448.8 311.043 446.943 310.999 445.51 311.471C444.726 309.63 444.541 307.869 444.954 306.186C445.368 304.502 446.142 303.416 447.279 302.926C448.441 302.443 449.98 302.436 451.897 302.907C453.839 303.384 459.116 305.545 467.727 309.39L472.389 308.352C473.561 311.743 473.851 314.643 473.259 317.051C472.999 318.113 472.663 318.978 472.251 319.645C471.86 320.346 471.271 320.956 470.484 321.477C469.69 322.023 468.683 322.38 467.461 322.547C464.701 322.939 460.859 322.765 455.934 322.022L455.819 322.488C459.451 324.808 462.398 327.509 464.661 330.591C465.871 332.261 466.697 334.098 467.139 336.101C467.574 338.13 467.534 340.193 467.019 342.291C466.529 344.285 465.08 344.986 462.671 344.395C461.869 344.197 459.001 342.958 454.07 340.676C449.158 338.426 446.21 337.18 445.226 336.938C442.714 336.321 440.741 336.248 439.308 336.72C438.524 334.88 438.339 333.118 438.752 331.435Z" fill="#5D5C71"/>
<path d="M447.281 365.965C446.652 367.319 445.568 368.227 444.031 368.688C442.482 369.174 440.667 368.934 438.587 367.967C436.532 367.012 434.79 365.761 433.362 364.215C431.958 362.68 430.975 361.062 430.414 359.36C429.852 357.658 429.605 355.911 429.673 354.12C429.766 352.339 430.177 350.663 430.908 349.092C432.38 345.924 434.414 343.825 437.009 342.797C439.605 341.768 442.341 341.923 445.219 343.26C449.112 345.07 451.689 347.782 452.95 351.397C454.223 355.047 453.961 358.806 452.162 362.676C451.758 363.546 451.256 364.372 450.658 365.152C449.737 365.047 448.762 364.771 447.736 364.323C447.669 364.91 447.517 365.457 447.281 365.965ZM444.313 359.16C444.99 359.474 445.679 359.986 446.379 360.693C447.068 361.425 447.498 362.272 447.669 363.233C448.475 359.727 448.204 356.925 446.856 354.828C445.695 353.024 444.243 351.717 442.502 350.908C440.761 350.098 439.196 349.797 437.806 350.004C436.429 350.246 435.482 350.923 434.965 352.036C433.818 354.502 434.617 356.991 437.361 359.501C439.481 358.105 441.798 357.991 444.313 359.16Z" fill="#5D5C71"/>
<path d="M430.157 369.201C432.007 370.464 436.277 374.426 442.965 381.089L446.871 381.042C446.754 382.964 446.578 384.523 446.343 385.718C446.094 386.936 445.653 388.007 445.022 388.933C444.376 389.88 443.715 390.446 443.04 390.631C442.365 390.816 441.62 390.63 440.805 390.074C439.395 389.112 436.924 386.796 433.391 383.127L433 383.344C435.068 387.08 435.064 390.467 432.99 393.507C431.818 395.225 430.163 396.065 428.026 396.028C425.911 396.005 423.807 395.279 421.714 393.852C419.644 392.439 418.057 390.743 416.954 388.763C415.858 386.821 415.244 384.836 415.11 382.808C414.984 380.817 415.171 378.862 415.673 376.945C416.174 375.027 416.943 373.308 417.98 371.788C419.679 369.299 421.521 367.829 423.509 367.377C425.496 366.925 427.712 367.533 430.157 369.201ZM422.422 373.512C420.753 375.957 420.238 378.51 420.875 381.172C421.497 383.857 422.843 385.905 424.914 387.318C425.861 387.964 426.9 388.286 428.032 388.284C429.148 388.303 429.992 387.894 430.564 387.057C431.135 386.22 431.327 385.205 431.14 384.012C430.938 382.841 430.499 381.735 429.822 380.692C429.131 379.671 428.273 378.634 427.249 377.58C425.617 375.95 424.008 374.594 422.422 373.512Z" fill="#5D5C71"/>
<path d="M421.102 417.74C420.343 417.069 420.037 416.086 420.183 414.793C420.35 413.516 420.884 412.369 421.784 411.35C422.685 410.33 423.6 409.698 424.529 409.451C425.441 409.225 426.236 409.412 426.916 410.012C427.835 410.824 428.175 411.89 427.935 413.208C427.695 414.526 427.152 415.665 426.304 416.624C425.457 417.584 424.577 418.176 423.666 418.403C422.736 418.649 421.882 418.428 421.102 417.74ZM402.796 391.157C403.89 389.918 404.995 389.292 406.108 389.28C407.222 389.268 408.409 389.818 409.668 390.93C410.947 392.06 413.789 395.71 418.195 401.88L422.196 402.426C421.488 406.248 420.498 408.879 419.227 410.318C418.503 411.137 417.811 411.558 417.151 411.579C416.511 411.619 415.801 411.295 415.022 410.606C414.722 410.341 413.29 408.418 410.726 404.836C408.162 401.253 406.19 398.853 404.811 397.635C403.433 396.417 402.2 395.879 401.113 396.022C401.122 394.037 401.683 392.416 402.796 391.157Z" fill="#5D5C71"/>
<path d="M411.638 419.082L415.469 419.843C414.408 423.555 413.185 426.075 411.798 427.403C411.009 428.159 410.294 428.53 409.653 428.517C409.03 428.522 408.295 428.082 407.446 427.196C406.616 426.33 404.688 423.45 401.662 418.556C398.617 413.682 396.311 410.426 394.743 408.789C393.175 407.152 391.769 406.283 390.527 406.181C390.971 403.946 391.742 402.302 392.839 401.251C393.937 400.199 395.087 399.781 396.29 399.995C397.491 400.248 398.701 401.009 399.918 402.28C401.136 403.551 403.27 406.492 406.321 411.103C409.371 415.714 411.144 418.373 411.638 419.082Z" fill="#5D5C71"/>
<path d="M377.442 414.021C380.368 411.834 383.199 410.9 385.934 411.22C388.648 411.555 390.971 413.015 392.903 415.599C395.473 419.038 396.382 422.704 395.629 426.596C394.87 430.525 392.708 433.823 389.14 436.489C387.154 437.974 385.313 438.651 383.617 438.52C381.937 438.41 380.555 437.629 379.469 436.177C377.984 434.19 377.719 431.809 378.673 429.032C379.621 426.292 382.106 423.403 386.127 420.364C385.041 419.045 383.925 418.198 382.779 417.822C381.649 417.468 380.668 417.603 379.835 418.225C379.002 418.848 378.494 419.661 378.311 420.663C378.106 421.681 378.475 422.821 379.417 424.081C376.298 426.412 374.188 426.84 373.087 425.366C372.145 424.106 372.028 422.346 372.736 420.086C373.459 417.847 375.028 415.826 377.442 414.021ZM386.883 432.333C387.973 431.519 388.57 430.224 388.674 428.448C388.757 426.688 388.45 424.92 387.755 423.143C385.746 424.91 384.504 426.588 384.026 428.176C383.544 429.802 383.637 431.064 384.308 431.961C384.627 432.388 385.03 432.637 385.515 432.707C385.979 432.793 386.435 432.668 386.883 432.333Z" fill="#5D5C71"/>
<path d="M352.148 438.272C352.702 439.688 353.342 442.315 354.07 446.153C354.798 449.992 355.271 452.412 355.491 453.414L359.024 456.628C356.569 459.65 354.237 461.593 352.026 462.457C350.934 462.884 349.968 462.832 349.131 462.301C347.351 463.827 345.592 464.93 343.853 465.609C340.625 466.872 337.703 466.797 335.09 465.385C332.486 463.998 330.572 461.74 329.349 458.611C327.737 454.488 327.771 450.108 329.451 445.471C330.266 443.234 331.679 441.136 333.69 439.176C335.676 437.225 338.035 435.716 340.767 434.648C343.499 433.579 345.855 433.345 347.836 433.945C349.827 434.57 351.264 436.012 352.148 438.272ZM343.697 439.944C343.136 440.049 342.533 440.227 341.888 440.48C339.18 441.538 337.448 443.332 336.691 445.862C335.943 448.416 336.127 451.122 337.244 453.978C338.147 456.287 339.387 457.921 340.964 458.879C342.541 459.838 344.311 459.933 346.273 459.166C346.571 459.049 347.048 458.806 347.705 458.434C347.384 457.1 346.736 454.089 345.762 449.401C344.773 444.749 344.085 441.596 343.697 439.944Z" fill="#5D5C71"/>
<path d="M308.144 444.36C311.726 443.642 314.683 444.014 317.017 445.477C319.324 446.946 320.794 449.262 321.429 452.425C322.273 456.635 321.519 460.335 319.168 463.527C316.795 466.75 313.425 468.799 309.059 469.674C306.627 470.162 304.674 469.983 303.199 469.136C301.729 468.316 300.815 467.017 300.459 465.239C299.971 462.807 300.755 460.542 302.809 458.444C304.842 456.377 308.327 454.835 313.263 453.818C312.849 452.161 312.205 450.916 311.332 450.085C310.463 449.28 309.519 448.98 308.499 449.184C307.479 449.389 306.672 449.905 306.076 450.731C305.454 451.563 305.298 452.75 305.607 454.293C301.79 455.058 299.7 454.539 299.339 452.735C299.029 451.192 299.679 449.553 301.289 447.815C302.904 446.104 305.189 444.953 308.144 444.36ZM308.805 464.952C310.139 464.685 311.234 463.772 312.091 462.213C312.922 460.659 313.405 458.93 313.54 457.027C310.967 457.76 309.124 458.742 308.011 459.971C306.876 461.232 306.419 462.412 306.64 463.51C306.744 464.033 307.001 464.43 307.409 464.702C307.791 464.979 308.256 465.062 308.805 464.952Z" fill="#5D5C71"/>
<path d="M290.316 452.424C290.316 452.424 290.409 456.09 290.594 463.422C290.717 466.513 291.527 468.776 293.026 470.211C291.686 471.411 290.19 472.045 288.538 472.11C286.379 472.196 284.876 471.295 284.026 469.408C283.295 467.782 282.862 465.291 282.728 461.933C282.596 458.603 282.534 455.363 282.542 452.213L281.183 452.267C277.471 460.928 275.666 466.538 275.768 469.096C275.792 469.709 275.936 470.303 276.199 470.88C274.273 472.104 272.51 472.748 270.911 472.812C268.833 472.894 267.744 471.683 267.644 469.179C267.599 468.033 267.835 466.582 268.352 464.827C268.87 463.099 269.688 460.851 270.806 458.084C271.898 455.345 272.468 453.922 272.517 453.813L271.906 451.515C272.984 450.458 274.548 449.515 276.597 448.687C278.646 447.858 280.829 447.397 283.147 447.305C285.465 447.213 287.227 447.556 288.432 448.336C289.612 449.143 290.24 450.506 290.316 452.424Z" fill="#5D5C71"/>
<path d="M242.114 452.377C243.627 452.699 244.766 453.432 245.531 454.577C246.264 455.742 246.472 457.068 246.155 458.555C245.839 460.041 244.981 461.249 243.584 462.178C242.154 463.128 240.683 463.441 239.171 463.119C237.632 462.791 236.483 462.042 235.723 460.871C234.958 459.727 234.734 458.411 235.051 456.925C235.368 455.438 236.241 454.22 237.67 453.27C239.094 452.347 240.575 452.049 242.114 452.377Z" fill="#5D5C71"/>
<path d="M179.569 438.304L184.307 429.907L183.395 429.408C180.56 431.473 177.728 433.783 174.899 436.338C172.057 438.916 170.181 441.035 169.272 442.696C168.913 443.351 168.695 444.052 168.619 444.801C166.176 445.044 164.206 444.755 162.709 443.935C160.37 442.653 159.925 440.691 161.373 438.048C162.091 436.739 163.363 435.277 165.19 433.663C166.981 432.06 169.404 430.134 172.461 427.886C175.504 425.662 177.136 424.458 177.358 424.276L177.924 422.077C181.063 421.121 184.141 421.47 187.158 423.123C190.175 424.776 191.779 426.37 191.972 427.905C194.539 427.882 196.945 428.486 199.19 429.716C201.435 430.946 202.869 432.158 203.492 433.351C204.116 434.544 204.005 435.912 203.159 437.455L199.587 443.891C196.652 449.246 195.238 453.382 195.343 456.298C195.4 457.636 195.706 458.853 196.262 459.948C194.005 460.293 191.848 459.901 189.79 458.774C187.919 457.749 186.931 456.249 186.826 454.276C186.709 452.327 187.067 450.258 187.901 448.069C188.68 446.094 189.761 443.843 191.145 441.317L194.48 435.482L193.567 434.982C190.645 437.151 187.639 439.974 184.549 443.45C183.552 445.823 182.83 448.362 182.382 451.066C181.145 451.27 180.076 451.307 179.174 451.178C178.259 451.072 177.182 450.679 175.942 450C173.393 448.603 172.766 446.724 174.06 444.362C174.829 442.959 176.665 440.939 179.569 438.304Z" fill="#5D5C71"/>
<path d="M163.811 406.153C166.603 408.509 168.152 411.056 168.459 413.793C168.746 416.512 167.849 419.105 165.767 421.571C162.998 424.852 159.633 426.565 155.671 426.711C151.672 426.86 147.971 425.498 144.568 422.625C142.673 421.026 141.597 419.385 141.341 417.704C141.068 416.043 141.517 414.519 142.686 413.134C144.286 411.238 146.546 410.442 149.467 410.743C152.35 411.048 155.726 412.816 159.595 416.047C160.635 414.691 161.208 413.413 161.314 412.211C161.404 411.03 161.051 410.105 160.256 409.434C159.462 408.763 158.555 408.452 157.537 408.5C156.499 408.531 155.473 409.148 154.458 410.35C151.483 407.839 150.589 405.88 151.775 404.474C152.79 403.272 154.479 402.76 156.84 402.939C159.185 403.138 161.508 404.209 163.811 406.153ZM148.106 419.488C149.145 420.365 150.542 420.654 152.295 420.354C154.028 420.037 155.682 419.339 157.256 418.26C155.08 416.703 153.165 415.871 151.51 415.765C149.817 415.662 148.609 416.039 147.887 416.895C147.543 417.302 147.391 417.75 147.433 418.239C147.454 418.71 147.678 419.126 148.106 419.488Z" fill="#5D5C71"/>
<path d="M144.697 400.22C142.993 401.673 138.047 404.751 129.861 409.454L128.88 413.234C127.056 412.616 125.598 412.037 124.507 411.496C123.397 410.935 122.479 410.229 121.753 409.376C121.009 408.504 120.636 407.717 120.635 407.018C120.634 406.318 121.009 405.647 121.76 405.007C123.058 403.9 125.942 402.124 130.411 399.68L130.304 399.246C126.157 400.259 122.889 399.366 120.501 396.565C119.152 394.983 118.776 393.165 119.374 391.113C119.952 389.078 121.205 387.239 123.133 385.595C125.04 383.969 127.094 382.884 129.293 382.34C131.455 381.793 133.532 381.722 135.524 382.126C137.478 382.527 139.315 383.222 141.033 384.21C142.752 385.198 144.208 386.392 145.402 387.792C147.357 390.085 148.291 392.249 148.205 394.285C148.119 396.321 146.949 398.299 144.697 400.22ZM142.572 391.624C140.651 389.372 138.323 388.203 135.587 388.118C132.833 388.012 130.503 388.773 128.596 390.399C127.723 391.143 127.139 392.062 126.845 393.154C126.532 394.227 126.705 395.148 127.362 395.919C128.02 396.69 128.949 397.143 130.149 397.276C131.331 397.389 132.515 397.256 133.699 396.877C134.865 396.478 136.092 395.923 137.378 395.212C139.379 394.066 141.111 392.87 142.572 391.624Z" fill="#5D5C71"/>
<path d="M117.975 362.071C116.596 362.711 114.013 363.511 110.227 364.473C106.44 365.435 104.053 366.057 103.067 366.338L100.076 370.062C96.9092 367.797 94.8269 365.588 93.8286 363.435C93.335 362.37 93.3277 361.404 93.8068 360.535C92.1742 358.852 90.9653 357.164 90.1801 355.471C88.7219 352.326 88.6172 349.405 89.8659 346.71C91.0905 344.026 93.2269 341.977 96.2752 340.564C100.291 338.702 104.665 338.467 109.396 339.859C111.679 340.535 113.86 341.816 115.94 343.703C118.009 345.566 119.66 347.828 120.894 350.489C122.128 353.15 122.506 355.488 122.029 357.502C121.528 359.527 120.177 361.051 117.975 362.071ZM115.787 353.739C115.648 353.186 115.433 352.595 115.142 351.966C113.919 349.329 112.022 347.71 109.451 347.109C106.855 346.519 104.166 346.87 101.384 348.159C99.1343 349.203 97.5795 350.541 96.72 352.174C95.8606 353.807 95.8739 355.579 96.76 357.49C96.8946 357.78 97.1673 358.242 97.5782 358.874C98.8905 358.472 101.856 357.641 106.475 356.381C111.058 355.108 114.162 354.228 115.787 353.739Z" fill="#5D5C71"/>
<path d="M109.197 318.524C110.134 322.055 109.944 325.03 108.627 327.448C107.303 329.841 105.081 331.452 101.962 332.279C97.8127 333.38 94.073 332.855 90.7432 330.704C87.3809 328.533 85.1287 325.296 83.9866 320.991C83.3506 318.594 83.4098 316.634 84.1641 315.109C84.8926 313.592 86.1332 312.6 87.8859 312.135C90.2829 311.499 92.5917 312.142 94.812 314.064C96.9998 315.966 98.7528 319.35 100.071 324.214C101.7 323.699 102.903 322.98 103.678 322.057C104.429 321.141 104.67 320.18 104.404 319.175C104.137 318.17 103.573 317.395 102.711 316.851C101.843 316.281 100.648 316.198 99.1273 316.602C98.1288 312.839 98.5188 310.721 100.297 310.249C101.818 309.846 103.495 310.394 105.327 311.894C107.134 313.401 108.424 315.611 109.197 318.524ZM88.6845 320.449C89.0333 321.763 90.012 322.8 91.6205 323.56C93.2223 324.293 94.9773 324.669 96.8857 324.687C95.9957 322.164 94.9028 320.385 93.6072 319.349C92.279 318.295 91.0736 317.911 89.9911 318.198C89.4756 318.335 89.0948 318.615 88.8486 319.039C88.5956 319.438 88.5409 319.907 88.6845 320.449Z" fill="#5D5C71"/>
<path d="M100.054 301.225C100.054 301.225 96.4004 301.542 89.0938 302.177C86.0163 302.49 83.8074 303.438 82.4672 305.021C81.1863 303.757 80.4624 302.303 80.2953 300.658C80.0771 298.509 80.884 296.953 82.7161 295.99C84.2936 295.16 86.7538 294.575 90.0966 294.235C93.4129 293.898 96.643 293.637 99.7871 293.452L99.6497 292.099C90.7771 288.926 85.0673 287.469 82.5204 287.727C81.9102 287.789 81.3254 287.969 80.766 288.267C79.4258 286.42 78.6749 284.7 78.5133 283.109C78.3031 281.039 79.445 279.878 81.9388 279.625C83.0796 279.509 84.5419 279.655 86.3256 280.064C88.0828 280.475 90.3764 281.153 93.2064 282.099C96.0072 283.021 97.4634 283.503 97.5749 283.545L99.8305 282.793C100.952 283.805 101.989 285.308 102.942 287.302C103.895 289.296 104.489 291.447 104.723 293.755C104.957 296.063 104.723 297.843 104.019 299.094C103.286 300.321 101.964 301.031 100.054 301.225Z" fill="#5D5C71"/>
<path d="M97.1418 253.111C96.913 254.641 96.2508 255.822 95.1554 256.656C94.0375 257.46 92.727 257.749 91.2237 257.524C89.7204 257.299 88.4622 256.518 87.449 255.18C86.4134 253.811 86.0101 252.362 86.2389 250.833C86.4717 249.277 87.149 248.084 88.2708 247.254C89.3663 246.42 90.6656 246.116 92.1689 246.341C93.6721 246.566 94.9416 247.362 95.9772 248.73C96.9864 250.095 97.3746 251.555 97.1418 253.111Z" fill="#5D5C71"/>
</svg>
